<svg aria-hidden="true" style="position: absolute; width: 0; height: 0; overflow: hidden;" version="1.1" xmlns="http://www.w3.org/2000/svg" xmlns:xlink="http://www.w3.org/1999/xlink">
<defs>
<symbol id="icon-100" viewBox="0 0 34 32">
<path fill="none" stroke="#1434e1" style="stroke: var(--color1, #1434e1)" stroke-linejoin="round" stroke-linecap="round" stroke-miterlimit="4" stroke-width="3.2" d="M1.6 8l8-6.4c0 0-8 16.8-8 22.4"></path>
<path fill="none" stroke="#1434e1" style="stroke: var(--color1, #1434e1)" stroke-linejoin="miter" stroke-linecap="round" stroke-miterlimit="4" stroke-width="3.2" d="M16.697 1.6c-2.4 0.8-4 4.8-4.8 8s-1.747 8 2.4 8c5.747 0 4.947-12.8 4.947-12.8"></path>
<path fill="none" stroke="#1434e1" style="stroke: var(--color1, #1434e1)" stroke-linejoin="miter" stroke-linecap="round" stroke-miterlimit="4" stroke-width="3.2" d="M27.897 1.6c-2.4 0.8-4 4.8-4.8 8s-1.747 8 2.4 8c5.747 0 4.947-12.8 4.947-12.8"></path>
<path fill="none" stroke="#1434e1" style="stroke: var(--color1, #1434e1)" stroke-linejoin="miter" stroke-linecap="round" stroke-miterlimit="4" stroke-width="3.2" d="M8 24c0 0 8-3.2 17.6-1.6"></path>
<path fill="none" stroke="#1434e1" style="stroke: var(--color1, #1434e1)" stroke-linejoin="round" stroke-linecap="round" stroke-miterlimit="4" stroke-width="3.2" d="M27.2 27.2c-13.6-1.437-24 3.2-24 3.2"></path>
</symbol>
<symbol id="icon-amd" viewBox="0 0 32 32">
<path d="M23.387 24.13c-0.16-0.4-0.55-0.66-0.99-0.66h-13.864v-13.87c0-0.59-0.48-1.070-1.060-1.070-0.28 0-0.56 0.11-0.76 0.31l-6.402 6.4c-0.2 0.2-0.31 0.47-0.31 0.76v14.93c0 0.59 0.48 1.070 1.070 1.070h14.935c0.28 0 0.55-0.11 0.76-0.31l6.402-6.4c0.29-0.31 0.38-0.77 0.22-1.16z"></path>
<path d="M30.94 0h-27.749c-0.59 0-1.070 0.48-1.070 1.060 0 0.28 0.11 0.56 0.31 0.76l6.402 6.4c0.2 0.2 0.47 0.31 0.76 0.31h13.874v13.87c0 0.28 0.11 0.55 0.31 0.76l6.402 6.4c0.42 0.42 1.090 0.42 1.51 0 0.2-0.2 0.31-0.47 0.31-0.76v-27.73c0-0.59-0.47-1.070-1.060-1.070z"></path>
</symbol>
<symbol id="icon-apple" viewBox="0 0 26 32">
<path d="M1.36 11.763c-2.726 4.695-0.993 11.819 2.022 16.139 1.505 2.16 3.028 4.098 5.115 4.098 0.039 0 0.079-0.001 0.119-0.002 0.98-0.039 1.689-0.338 2.374-0.628 0.769-0.325 1.564-0.662 2.812-0.662 1.187 0 1.944 0.325 2.677 0.64 0.722 0.31 1.465 0.631 2.564 0.61 2.351-0.043 3.794-2.135 5.067-3.981 1.329-1.927 1.995-3.798 2.22-4.513l0.009-0.028c0.043-0.127-0.018-0.266-0.14-0.322-0.003-0.002-0.016-0.007-0.019-0.008-0.414-0.168-4.045-1.766-4.083-6.123-0.035-3.54 2.724-5.414 3.277-5.754l0.026-0.016c0.060-0.038 0.102-0.099 0.116-0.169s-0.001-0.142-0.041-0.2c-1.905-2.766-4.824-3.183-5.999-3.233-0.171-0.017-0.347-0.025-0.523-0.025-1.38 0-2.703 0.517-3.765 0.933-0.733 0.287-1.367 0.535-1.804 0.535-0.491 0-1.128-0.251-1.866-0.541-0.986-0.389-2.105-0.829-3.288-0.829-0.028 0-0.056 0-0.083 0.001-2.752 0.040-5.353 1.603-6.786 4.077z"></path>
<path d="M19.478 0c-1.667 0.067-3.666 1.085-4.861 2.474-1.016 1.167-2.008 3.114-1.746 5.076 0.016 0.123 0.117 0.218 0.242 0.227 0.112 0.009 0.227 0.013 0.342 0.013 1.63 0 3.388-0.895 4.588-2.335 1.264-1.521 1.902-3.473 1.709-5.222-0.015-0.137-0.137-0.239-0.273-0.233z"></path>
</symbol>
<symbol id="icon-arrow-left" viewBox="0 0 32 32">
<path fill="#c4c4c4" style="fill: var(--color2, #c4c4c4)" d="M0 0h32v32h-32v-32z"></path>
<path fill="none" stroke="#fff" style="stroke: var(--color3, #fff)" stroke-linejoin="miter" stroke-linecap="butt" stroke-miterlimit="4" stroke-width="1.28" d="M17.6 11.2l-4.8 5 4.8 5"></path>
</symbol>
<symbol id="icon-arrow-right" viewBox="0 0 32 32">
<path fill="#c4c4c4" style="fill: var(--color2, #c4c4c4)" d="M0 0h32v32h-32v-32z"></path>
<path fill="none" stroke="#fff" style="stroke: var(--color3, #fff)" stroke-linejoin="miter" stroke-linecap="butt" stroke-miterlimit="4" stroke-width="1.28" d="M14.4 21.6l4.8-5-4.8-5"></path>
</symbol>
<symbol id="icon-bag" viewBox="0 0 24 32">
<path fill="none" stroke="#1434e1" style="stroke: var(--color1, #1434e1)" stroke-linejoin="miter" stroke-linecap="butt" stroke-miterlimit="4" stroke-width="2.6667" d="M21.333 9.333h-18.667c-0.736 0-1.333 0.597-1.333 1.333v18.667c0 0.736 0.597 1.333 1.333 1.333h18.667c0.736 0 1.333-0.597 1.333-1.333v-18.667c0-0.736-0.597-1.333-1.333-1.333z"></path>
<path fill="#1434e1" style="fill: var(--color1, #1434e1)" d="M22.667 24h-21.333v2.667h21.333v-2.667z"></path>
<path fill="none" stroke="#1434e1" style="stroke: var(--color1, #1434e1)" stroke-linejoin="miter" stroke-linecap="round" stroke-miterlimit="4" stroke-width="2.6667" d="M17.333 13.333v-6.667c0-2.946-2.388-5.333-5.333-5.333s-5.333 2.388-5.333 5.333v6.667"></path>
</symbol>
<symbol id="icon-facebook" viewBox="0 0 32 32">
<path fill="#fff" style="fill: var(--color3, #fff)" d="M17.943 25.333v-9h2.915l0.476-4h-3.391v-1.948c0-1.030 0.028-2.052 1.563-2.052h1.555v-2.86c0-0.043-1.336-0.14-2.687-0.14-2.822 0-4.589 1.657-4.589 4.7v2.3h-3.118v4h3.118v9h4.158z"></path>
</symbol>
<symbol id="icon-google" viewBox="0 0 32 32">
<path fill="#fff" style="fill: var(--color3, #fff)" d="M25.167 14.137h-8.97c0 0.933 0 2.798-0.006 3.731h5.198c-0.199 0.933-0.905 2.239-1.903 2.896-0.001-0.001-0.002 0.006-0.004 0.005-1.327 0.876-3.077 1.075-4.377 0.813-2.037-0.405-3.65-1.882-4.305-3.759 0.004-0.003 0.007-0.029 0.010-0.031-0.41-1.164-0.41-2.723 0-3.656h-0.001c0.528-1.714 2.189-3.279 4.229-3.707 1.641-0.348 3.493 0.029 4.855 1.303 0.181-0.177 2.506-2.448 2.681-2.632-4.653-4.213-12.102-2.731-14.89 2.71h-0.001c0 0 0.001 0-0.005 0.010-1.379 2.673-1.322 5.822 0.010 8.366-0.004 0.003-0.007 0.005-0.010 0.007 1.206 2.341 3.402 4.137 6.048 4.821 2.81 0.737 6.387 0.233 8.783-1.934 0.001 0.001 0.002 0.002 0.003 0.003 2.030-1.828 3.294-4.943 2.655-8.947z"></path>
</symbol>
<symbol id="icon-linkedin" viewBox="0 0 32 32">
<path fill="#fff" style="fill: var(--color3, #fff)" d="M26.667 25.333h-4.103v-7.471c0-2.049-0.869-3.193-2.427-3.193-1.695 0-2.702 1.191-2.702 3.193v7.471h-4.103v-13.877h4.103v1.561c0 0 1.287-2.351 4.188-2.351s5.043 1.842 5.043 5.655c0 3.812 0 9.011 0 9.011zM7.334 8c-1.105 0-2-0.896-2-2s0.895-2 2-2c1.104 0 2 0.896 2 2s-0.895 2-2 2zM5.333 25.333h4v-13.333h-4v13.333z"></path>
</symbol>
<symbol id="icon-logo" viewBox="0 0 100 32">
<path d="M12 0c-7.136 0-12 4.864-12 12 0 7.008 4.96 11.808 12 11.808 3.168 0 6.336-0.64 9.344-2.24v-11.584h-8.672v3.648h4.64v5.344c-1.6 0.896-3.584 1.184-5.28 1.184-4.864 0-7.808-3.744-7.808-8.416 0-4.512 3.136-8.096 7.776-8.096 2.112 0 4.384 0.736 5.92 2.208l2.976-3.008c-2.4-2.176-5.76-2.848-8.896-2.848z"></path>
<path d="M32.885 7.488c-2.016 0-3.712 1.056-4.544 2.816h-0.064v-2.432h-3.84v15.36h3.84v-8c0-2.048 1.216-4.096 4.128-4.096 0.576 0 1.12 0.096 1.856 0.288v-3.712c-0.512-0.128-0.8-0.224-1.376-0.224z"></path>
<path d="M42.037 7.488c-3.008 0-5.152 1.056-6.528 2.464l2.016 2.016c1.056-0.96 2.496-1.6 4.096-1.6 2.112 0 3.52 1.056 3.52 2.848v0.448h-1.184c-6.592 0-9.44 1.792-9.44 5.344 0 2.816 2.432 4.608 5.6 4.608 2.048 0 3.84-0.768 4.928-2.496h0.096v2.112h3.456v-9.184c0-3.616-1.312-6.56-6.56-6.56zM38.357 18.72c0-1.632 2.048-2.368 5.44-2.368h1.12v0.96c0 1.952-1.216 3.424-3.84 3.424-1.44 0-2.72-0.704-2.72-2.016z"></path>
<path d="M49.315 7.872l6.272 15.36h4.096l6.048-15.36h-3.936l-4.128 10.752h-0.064l-4.096-10.752h-4.192z"></path>
<path d="M68.608 0.352c-1.376 0-2.432 1.056-2.432 2.304s1.056 2.304 2.432 2.304c1.376 0 2.496-0.928 2.496-2.304 0-1.312-1.088-2.304-2.496-2.304zM66.72 7.872v15.36h3.84v-15.36h-3.84z"></path>
<path d="M75.011 3.424v4.448h-3.168v3.264h3.168v7.2c0 3.872 1.408 5.28 5.024 5.28 0.864 0 2.304-0.16 3.040-0.512v-3.232c-0.32 0.256-1.12 0.48-2.080 0.48-1.504 0-2.144-0.768-2.144-2.4v-6.816h4.224v-3.264h-4.224v-4.448h-3.84z"></path>
<path d="M82.659 7.872l6.56 15.488-0.672 1.664c-0.704 1.696-1.088 2.432-3.104 2.432-0.672 0-1.344-0.16-1.952-0.384l-0.48 3.456c0.96 0.256 1.952 0.384 2.944 0.384 3.84 0 4.864-1.888 6.112-5.056l7.008-17.984h-4l-3.84 10.656h-0.064l-4.288-10.656h-4.224z"></path>
</symbol>
<symbol id="icon-menu" viewBox="0 0 78 32">
<path d="M0 0h77.714v6.857h-77.714v-6.857z"></path>
<path d="M36.571 25.143h41.143v6.857h-41.143v-6.857z"></path>
</symbol>
<symbol id="icon-nike" viewBox="0 0 93 32">
<path d="M52.317 10.507l-21.829 5.719c-5.667 1.402-10.623 3.27-15.4 1.635-6.493-2.804-6.376-10.1-1.536-17.861-8.558 7.063-23.958 29.648-3.13 31.928 2.653 0.349 7.377-0.582 12.508-2.74l70.157-28.723-40.771 10.042z"></path>
</symbol>
<symbol id="icon-play-button" viewBox="0 0 32 32">
<path fill="#fff" style="fill: var(--color3, #fff)" d="M0 0h32v32h-32v-32z"></path>
<path fill="#f96241" style="fill: var(--color4, #f96241)" d="M21.020 16.172l-7.273 4.199v-8.398l7.273 4.199z"></path>
</symbol>
<symbol id="icon-search" viewBox="0 0 32 32">
<path d="M0 13.6c0 7.511 6.089 13.6 13.6 13.6 2.914 0 5.613-0.916 7.826-2.476l5.503 5.499c0.625 0.624 1.637 0.624 2.262 0l1.036-1.036c0.625-0.625 0.625-1.639 0-2.264l-5.502-5.499c1.559-2.213 2.475-4.912 2.475-7.824 0-7.511-6.089-13.6-13.6-13.6s-13.6 6.089-13.6 13.6zM13.6 23.314c-5.356 0-9.714-4.358-9.714-9.714s4.358-9.714 9.714-9.714c5.356 0 9.714 4.358 9.714 9.714s-4.358 9.714-9.714 9.714z"></path>
</symbol>
<symbol id="icon-tinder" viewBox="0 0 24 32">
<path d="M23.768 19.448c-0.424-6.292-3.693-12.44-9.735-18.311-0.632-0.615-1.175-1.126-1.206-1.136s0.028 0.233 0.131 0.54c0.267 0.799 0.483 1.886 0.569 2.86 0.246 3.321-0.204 7.185-4.56 9.552-0.662 0.335-0.6 0.268-0.731 0.152-0.172-0.152-0.567-0.675-0.806-1.162-0.382-0.775-0.551-1.454-0.666-2.692l-0.075-0.791-0.757 0.886c-0.909 1.067-1.7 2.112-2.462 3.264-4.194 6.331-4.608 12.108-1.117 15.631 2.744 2.678 6.286 3.866 11.413 3.079 6.008-0.817 10.137-4.661 10.004-11.872z"></path>
</symbol>
<symbol id="icon-twitter" viewBox="0 0 32 32">
<path fill="#fff" style="fill: var(--color3, #fff)" d="M12.043 25.333c8.050 0 12.453-7.182 12.453-13.41 0-0.204 0-0.408-0.013-0.61 0.857-0.666 1.596-1.493 2.183-2.44-0.798 0.381-1.646 0.632-2.513 0.742 0.913-0.589 1.597-1.515 1.924-2.607-0.86 0.549-1.799 0.936-2.78 1.144-1.658-1.898-4.43-1.989-6.193-0.204-1.136 1.151-1.619 2.867-1.266 4.504-3.519-0.191-6.798-1.98-9.021-4.924-1.162 2.154-0.567 4.908 1.356 6.291-0.697-0.022-1.378-0.224-1.987-0.589v0.060c0.001 2.243 1.47 4.175 3.511 4.62-0.644 0.19-1.321 0.217-1.975 0.080 0.573 1.921 2.217 3.236 4.089 3.274-1.55 1.312-3.465 2.024-5.436 2.022-0.348-0.001-0.695-0.023-1.042-0.068 2.002 1.383 4.331 2.117 6.709 2.113z"></path>
</symbol>
<symbol id="icon-xiaomi" viewBox="0 0 41 32">
<path d="M18.866 0h-18.866v31.927h5.805v-26.122h13.061c2.4 0 4.354 1.953 4.354 4.354v21.769h5.805v-21.769c0-5.602-4.557-10.159-10.159-10.159z"></path>
<path d="M17.415 11.61h-5.805v20.317h5.805v-20.317z"></path>
<path d="M40.635 0h-5.805v31.927h5.805v-31.927z"></path>
</symbol>
</defs>
</svg>
