<svg aria-hidden="true" xmlns="http://www.w3.org/2000/svg" overflow="hidden"><defs><symbol id="icon-100" viewBox="0 0 34 32"><path fill="none" stroke="var(--color1, #1434e1)" stroke-linejoin="round" stroke-linecap="round" stroke-width="3.2" d="m1.6 8 8-6.4s-8 16.8-8 22.4"/><path fill="none" stroke="var(--color1, #1434e1)" stroke-linecap="round" stroke-width="3.2" d="M16.697 1.6c-2.4.8-4 4.8-4.8 8s-1.747 8 2.4 8c5.747 0 4.947-12.8 4.947-12.8M27.897 1.6c-2.4.8-4 4.8-4.8 8s-1.747 8 2.4 8c5.747 0 4.947-12.8 4.947-12.8M8 24s8-3.2 17.6-1.6"/><path fill="none" stroke="var(--color1, #1434e1)" stroke-linejoin="round" stroke-linecap="round" stroke-width="3.2" d="M27.2 27.2c-13.6-1.437-24 3.2-24 3.2"/></symbol><symbol id="icon-amd" viewBox="0 0 32 32"><path d="M23.387 24.13c-.16-.4-.55-.66-.99-.66H8.533V9.6a1.07 1.07 0 0 0-1.82-.76l-6.402 6.4c-.2.2-.31.47-.31.76v14.93c0 .59.48 1.07 1.07 1.07h14.935c.28 0 .55-.11.76-.31l6.402-6.4c.29-.31.38-.77.22-1.16zM30.94 0H3.191a1.07 1.07 0 0 0-.76 1.82l6.402 6.4c.2.2.47.31.76.31h13.874V22.4c0 .28.11.55.31.76l6.402 6.4a1.066 1.066 0 0 0 1.82-.76V1.07c0-.59-.47-1.07-1.06-1.07z"/></symbol><symbol id="icon-apple" viewBox="0 0 26 32"><path d="M1.36 11.763c-2.726 4.695-.993 11.819 2.022 16.139C4.887 30.062 6.41 32 8.497 32l.119-.002c.98-.039 1.689-.338 2.374-.628.769-.325 1.564-.662 2.812-.662 1.187 0 1.944.325 2.677.64.722.31 1.465.631 2.564.61 2.351-.043 3.794-2.135 5.067-3.981a17.58 17.58 0 0 0 2.22-4.513l.009-.028a.262.262 0 0 0-.159-.33c-.414-.168-4.045-1.766-4.083-6.123-.035-3.54 2.724-5.414 3.277-5.754l.026-.016a.26.26 0 0 0 .075-.369c-1.905-2.766-4.824-3.183-5.999-3.233a5.31 5.31 0 0 0-.523-.025c-1.38 0-2.703.517-3.765.933-.733.287-1.367.535-1.804.535-.491 0-1.128-.251-1.866-.541-.986-.389-2.105-.829-3.288-.829l-.083.001c-2.752.04-5.353 1.603-6.786 4.077z"/><path d="M19.478 0c-1.667.067-3.666 1.085-4.861 2.474-1.016 1.167-2.008 3.114-1.746 5.076a.262.262 0 0 0 .242.227c.112.009.227.013.342.013 1.63 0 3.388-.895 4.588-2.335 1.264-1.521 1.902-3.473 1.709-5.222A.264.264 0 0 0 19.479 0z"/></symbol><symbol id="icon-arrow-left" viewBox="0 0 32 32"><path fill="var(--color2, #c4c4c4)" d="M0 0h32v32H0V0z"/><path fill="none" stroke="var(--color3, #fff)" stroke-width="1.28" d="m17.6 11.2-4.8 5 4.8 5"/></symbol><symbol id="icon-arrow-right" viewBox="0 0 32 32"><path fill="var(--color2, #c4c4c4)" d="M0 0h32v32H0V0z"/><path fill="none" stroke="var(--color3, #fff)" stroke-width="1.28" d="m14.4 21.6 4.8-5-4.8-5"/></symbol><symbol id="icon-bag" viewBox="0 0 24 32"><path fill="none" stroke="var(--color1, #1434e1)" stroke-width="2.667" d="M21.333 9.333H2.666c-.736 0-1.333.597-1.333 1.333v18.667c0 .736.597 1.333 1.333 1.333h18.667c.736 0 1.333-.597 1.333-1.333V10.666c0-.736-.597-1.333-1.333-1.333z"/><path fill="var(--color1, #1434e1)" d="M22.667 24H1.334v2.667h21.333V24z"/><path fill="none" stroke="var(--color1, #1434e1)" stroke-linecap="round" stroke-width="2.667" d="M17.333 13.333V6.666a5.333 5.333 0 1 0-10.666 0v6.667"/></symbol><symbol id="icon-facebook" viewBox="0 0 32 32"><path fill="var(--color3, #fff)" d="M17.943 25.333v-9h2.915l.476-4h-3.391v-1.948c0-1.03.028-2.052 1.563-2.052h1.555v-2.86c0-.043-1.336-.14-2.687-.14-2.822 0-4.589 1.657-4.589 4.7v2.3h-3.118v4h3.118v9h4.158z"/></symbol><symbol id="icon-google" viewBox="0 0 32 32"><path fill="var(--color3, #fff)" d="M25.167 14.137h-8.97c0 .933 0 2.798-.006 3.731h5.198c-.199.933-.905 2.239-1.903 2.896-.001-.001-.002.006-.004.005-1.327.876-3.077 1.075-4.377.813a5.774 5.774 0 0 1-4.305-3.759c.004-.003.007-.029.01-.031-.41-1.164-.41-2.723 0-3.656h-.001c.528-1.714 2.189-3.279 4.229-3.707 1.641-.348 3.493.029 4.855 1.303.181-.177 2.506-2.448 2.681-2.632-4.653-4.213-12.102-2.731-14.89 2.71h-.001l-.005.01a9.113 9.113 0 0 0 .01 8.366l-.01.007a9.502 9.502 0 0 0 6.048 4.821c2.81.737 6.387.233 8.783-1.934l.003.003c2.03-1.828 3.294-4.943 2.655-8.947z"/></symbol><symbol id="icon-linkedin" viewBox="0 0 32 32"><path fill="var(--color3, #fff)" d="M26.667 25.333h-4.103v-7.471c0-2.049-.869-3.193-2.427-3.193-1.695 0-2.702 1.191-2.702 3.193v7.471h-4.103V11.456h4.103v1.561s1.287-2.351 4.188-2.351 5.043 1.842 5.043 5.655v9.011zM7.334 8a2 2 0 1 1 0-4 2 2 0 0 1 0 4zM5.333 25.333h4V12h-4v13.333z"/></symbol><symbol id="icon-logo" viewBox="0 0 100 32"><path d="M12 0C4.864 0 0 4.864 0 12c0 7.008 4.96 11.808 12 11.808 3.168 0 6.336-.64 9.344-2.24V9.984h-8.672v3.648h4.64v5.344c-1.6.896-3.584 1.184-5.28 1.184-4.864 0-7.808-3.744-7.808-8.416 0-4.512 3.136-8.096 7.776-8.096 2.112 0 4.384.736 5.92 2.208l2.976-3.008C18.496.672 15.136 0 12 0zM32.885 7.488c-2.016 0-3.712 1.056-4.544 2.816h-.064V7.872h-3.84v15.36h3.84v-8c0-2.048 1.216-4.096 4.128-4.096.576 0 1.12.096 1.856.288V7.712c-.512-.128-.8-.224-1.376-.224zM42.037 7.488c-3.008 0-5.152 1.056-6.528 2.464l2.016 2.016a6.103 6.103 0 0 1 4.096-1.6c2.112 0 3.52 1.056 3.52 2.848v.448h-1.184c-6.592 0-9.44 1.792-9.44 5.344 0 2.816 2.432 4.608 5.6 4.608 2.048 0 3.84-.768 4.928-2.496h.096v2.112h3.456v-9.184c0-3.616-1.312-6.56-6.56-6.56zm-3.68 11.232c0-1.632 2.048-2.368 5.44-2.368h1.12v.96c0 1.952-1.216 3.424-3.84 3.424-1.44 0-2.72-.704-2.72-2.016zM49.315 7.872l6.272 15.36h4.096l6.048-15.36h-3.936l-4.128 10.752h-.064L53.507 7.872h-4.192zM68.608.352c-1.376 0-2.432 1.056-2.432 2.304s1.056 2.304 2.432 2.304 2.496-.928 2.496-2.304c0-1.312-1.088-2.304-2.496-2.304zm-1.888 7.52v15.36h3.84V7.872h-3.84zM75.011 3.424v4.448h-3.168v3.264h3.168v7.2c0 3.872 1.408 5.28 5.024 5.28.864 0 2.304-.16 3.04-.512v-3.232c-.32.256-1.12.48-2.08.48-1.504 0-2.144-.768-2.144-2.4v-6.816h4.224V7.872h-4.224V3.424h-3.84z"/><path d="m82.659 7.872 6.56 15.488-.672 1.664c-.704 1.696-1.088 2.432-3.104 2.432-.672 0-1.344-.16-1.952-.384l-.48 3.456c.96.256 1.952.384 2.944.384 3.84 0 4.864-1.888 6.112-5.056l7.008-17.984h-4l-3.84 10.656h-.064L86.883 7.872h-4.224z"/></symbol><symbol id="icon-menu" viewBox="0 0 78 32"><path d="M0 0h77.714v6.857H0V0zM36.571 25.143h41.143V32H36.571v-6.857z"/></symbol><symbol id="icon-nike" viewBox="0 0 93 32"><path d="m52.317 10.507-21.829 5.719c-5.667 1.402-10.623 3.27-15.4 1.635C8.595 15.057 8.712 7.761 13.552 0c-8.558 7.063-23.958 29.648-3.13 31.928 2.653.349 7.377-.582 12.508-2.74L93.087.465 52.316 10.507z"/></symbol><symbol id="icon-play-button" viewBox="0 0 32 32"><path fill="var(--color3, #fff)" d="M0 0h32v32H0V0z"/><path fill="var(--color4, #f96241)" d="m21.02 16.172-7.273 4.199v-8.398l7.273 4.199z"/></symbol><symbol id="icon-search" viewBox="0 0 32 32"><path d="M0 13.6c0 7.511 6.089 13.6 13.6 13.6 2.914 0 5.613-.916 7.826-2.476l5.503 5.499a1.6 1.6 0 0 0 2.262 0l1.036-1.036a1.601 1.601 0 0 0 0-2.264l-5.502-5.499A13.54 13.54 0 0 0 27.2 13.6C27.2 6.089 21.111 0 13.6 0S0 6.089 0 13.6zm13.6 9.714c-5.356 0-9.714-4.358-9.714-9.714S8.244 3.886 13.6 3.886c5.356 0 9.714 4.358 9.714 9.714s-4.358 9.714-9.714 9.714z"/></symbol><symbol id="icon-tinder" viewBox="0 0 24 32"><path d="M23.768 19.448c-.424-6.292-3.693-12.44-9.735-18.311C13.401.522 12.858.011 12.827.001s.028.233.131.54c.267.799.483 1.886.569 2.86.246 3.321-.204 7.185-4.56 9.552-.662.335-.6.268-.731.152-.172-.152-.567-.675-.806-1.162-.382-.775-.551-1.454-.666-2.692l-.075-.791-.757.886A33.089 33.089 0 0 0 3.47 12.61c-4.194 6.331-4.608 12.108-1.117 15.631 2.744 2.678 6.286 3.866 11.413 3.079 6.008-.817 10.137-4.661 10.004-11.872z"/></symbol><symbol id="icon-twitter" viewBox="0 0 32 32"><path fill="var(--color3, #fff)" d="M12.043 25.333c8.05 0 12.453-7.182 12.453-13.41 0-.204 0-.408-.013-.61a9.267 9.267 0 0 0 2.183-2.44 8.242 8.242 0 0 1-2.513.742c.913-.589 1.597-1.515 1.924-2.607a8.403 8.403 0 0 1-2.78 1.144c-1.658-1.898-4.43-1.989-6.193-.204-1.136 1.151-1.619 2.867-1.266 4.504-3.519-.191-6.798-1.98-9.021-4.924-1.162 2.154-.567 4.908 1.356 6.291a4.112 4.112 0 0 1-1.987-.589v.06c.001 2.243 1.47 4.175 3.511 4.62a4.042 4.042 0 0 1-1.975.08c.573 1.921 2.217 3.236 4.089 3.274-1.55 1.312-3.465 2.024-5.436 2.022a8.274 8.274 0 0 1-1.042-.068c2.002 1.383 4.331 2.117 6.709 2.113z"/></symbol><symbol id="icon-xiaomi" viewBox="0 0 41 32"><path d="M18.866 0H0v31.927h5.805V5.805h13.061a4.36 4.36 0 0 1 4.354 4.354v21.769h5.805V10.159C29.025 4.557 24.468 0 18.866 0z"/><path d="M17.415 11.61H11.61v20.317h5.805V11.61zM40.635 0H34.83v31.927h5.805V0z"/></symbol></defs></svg>